# xmcd
#
# Track frame offsets:
#	150
#	12947
#	30887
#	44425
#	59957
#	76162
#	94390
#	111962
#	124310
#	137292
#	154127
#	172790
#	186320
#
# Disc length: 2660 seconds
#
# Revision: 0
# Processed by: cddbd v1.4PL0 Copyright (c) Steve Scherf et al.
# Submitted via: dBpowerAMP V4.0
#
DISCID=a70a620d
DTITLE=Ronnie Wolf - No Place to Turn Around
DYEAR=2002
DGENRE=Country
TTITLE0=Keep Keepin' It Up
TTITLE1=After Tonight
TTITLE2=When the Cows Come Home
TTITLE3=Remember the Ride
TTITLE4=Ain't No Place to Turn Around
TTITLE5=If I Could Lose My Senses
TTITLE6=Down In History
TTITLE7=PHD In Love
TTITLE8=Blue Carpet
TTITLE9=Take It From Me
TTITLE10=Runnin'
TTITLE11=Latest Single
TTITLE12=It's Hard Work Havin' Fun
EXTD=CD is distributed by United Records
EXTT0=
EXTT1=
EXTT2=
EXTT3=
EXTT4=
EXTT5=
EXTT6=
EXTT7=
EXTT8=
EXTT9=
EXTT10=
EXTT11=
EXTT12=
PLAYORDER=
